<?xml version="1.0" encoding="UTF-8" standalone="no"?>
<!-- Uploaded to: SVG Repo, www.svgrepo.com, Generator: SVG Repo Mixer Tools -->

<svg
   width="800px"
   height="800px"
   viewBox="0 0 400 400"
   fill="none"
   version="1.1"
   id="svg3"
   sodipodi:docname="ear-svgrepo-com.svg"
   inkscape:version="1.4.2 (f4327f4, 2025-05-13)"
   xmlns:inkscape="http://www.inkscape.org/namespaces/inkscape"
   xmlns:sodipodi="http://sodipodi.sourceforge.net/DTD/sodipodi-0.dtd"
   xmlns="http://www.w3.org/2000/svg"
   xmlns:svg="http://www.w3.org/2000/svg">
  <defs
     id="defs3" />
  <sodipodi:namedview
     id="namedview3"
     pagecolor="#505050"
     bordercolor="#ffffff"
     borderopacity="1"
     inkscape:showpageshadow="0"
     inkscape:pageopacity="0"
     inkscape:pagecheckerboard="1"
     inkscape:deskcolor="#505050"
     showgrid="false"
     inkscape:zoom="1"
     inkscape:cx="400"
     inkscape:cy="399.5"
     inkscape:window-width="1920"
     inkscape:window-height="991"
     inkscape:window-x="-9"
     inkscape:window-y="-9"
     inkscape:window-maximized="1"
     inkscape:current-layer="svg3" />
  <path
     d="M105.488 117.524C113.408 99.7187 120.359 78.852 137.7 68.0142C219.412 16.9436 304.012 96.8239 291.596 183.735C284.41 234.037 231.516 260.946 210.472 303.034C192.435 339.108 121.338 372.909 115.629 321.526"
     stroke="#000000"
     stroke-opacity="0.9"
     stroke-width="16"
     stroke-linecap="round"
     stroke-linejoin="round"
     id="path1" />
  <path
     d="M229.563 238.612C271.782 193.835 261.136 88.7032 191.386 91.8739C138.895 94.26 151.137 164.677 163.351 189.103"
     stroke="#000000"
     stroke-opacity="0.9"
     stroke-width="16"
     stroke-linecap="round"
     stroke-linejoin="round"
     id="path2" />
  <path
     d="M152.723 155.103C208.642 151.222 227.658 210.091 191.382 246.368C181.932 255.816 163.669 242.087 152.723 247.56C141.774 253.035 133.574 270.289 122.785 257.701"
     stroke="#000000"
     stroke-opacity="0.9"
     stroke-width="16"
     stroke-linecap="round"
     stroke-linejoin="round"
     id="path3" />
  <path
     style="fill:#ff7f2a;stroke-width:1.03493"
     d="m 269.0815,709.46227 c -20.33622,-4.48439 -35.66955,-16.08861 -44.46863,-33.65373 -5.33245,-10.64488 -9.63529,-29.01924 -8.37224,-35.75188 0.93885,-5.00446 6.0841,-10.55099 11.02079,-11.88031 8.46217,-2.27862 17.62497,3.55614 19.10172,12.16375 3.6872,21.49173 9.41101,31.19896 21.55695,36.55922 26.31182,11.61197 82.55599,-11.43903 117.39107,-48.1113 10.12086,-10.65464 15.41203,-18.05478 23.58631,-32.98748 15.93937,-29.1179 28.29663,-44.7785 74.47015,-94.37751 27.09358,-29.10358 36.90593,-40.31773 47.08915,-53.8163 20.06989,-26.60408 31.8614,-51.79388 36.81872,-78.6546 1.5472,-8.38332 1.90104,-15.36249 1.86269,-36.73997 -0.0437,-24.37961 -0.26113,-27.48078 -2.85302,-40.69563 -9.00227,-45.8985 -30.18832,-86.33884 -61.66199,-117.70155 -29.6299,-29.52544 -63.28409,-46.99735 -101.51838,-52.70428 -10.00843,-1.49388 -33.80811,-1.48821 -44.7553,0.0107 -19.06181,2.60991 -38.09379,8.75386 -57.89078,18.68844 -33.35818,16.73993 -44.9045,31.17321 -68.58396,85.73232 -4.30603,9.92138 -8.64044,18.95072 -9.63202,20.06522 -8.65722,9.73025 -26.32651,3.16678 -26.49901,-9.84339 -0.0447,-3.36888 1.91368,-8.99559 8.01961,-23.04184 26.8279,-61.71558 43.23506,-81.18578 86.01675,-102.07515 16.65802,-8.13375 34.58426,-14.393552 52.01101,-18.162115 14.99807,-3.243359 45.82969,-4.490318 62.04884,-2.509513 43.27884,5.285539 85.28144,25.892628 119.04727,58.406338 39.96648,38.48441 65.10856,86.76127 74.98626,143.98574 2.01076,11.64893 2.32175,17.1338 2.31789,40.87969 -0.003,21.40761 -0.40013,29.69656 -1.80761,37.7749 -5.92038,33.98038 -18.56328,61.91532 -42.62363,94.17853 -11.25773,15.09581 -23.5701,29.24803 -50.42146,57.95601 -40.16476,42.94193 -53.62283,59.65173 -66.42831,82.47865 -14.43697,25.73519 -20.69322,34.22168 -36.62527,49.68145 -40.3679,39.17128 -96.90022,62.15099 -133.20357,54.14564 z"
     id="path4"
     transform="scale(0.5)" />
  <path
     style="fill:#ff7f2a;stroke-width:1.03493"
     d="m 451.4792,490.32422 c -2.37894,-1.37884 -4.69005,-3.90811 -5.95084,-6.51256 -3.68216,-7.60633 -2.68558,-10.93258 6.6259,-22.11498 36.05034,-43.29381 50.13962,-112.79198 35.26611,-173.957 -9.18925,-37.78936 -29.00432,-65.40192 -57.0978,-79.56654 -18.8569,-9.50758 -49.19448,-11.70287 -68.5768,-4.96237 -26.92139,9.36234 -40.38346,35.02139 -40.3962,76.99622 l -0.004,13.7128 h -9.24699 c -10.30046,0 -13.7555,0.94392 -17.88932,4.88735 -2.49112,2.3764 -2.8935,2.48246 -3.49282,0.92066 -0.37255,-0.97082 -0.42724,-11.17414 -0.12154,-22.67403 0.63126,-23.74669 2.57035,-35.18972 8.61899,-50.86277 13.28424,-34.42169 40.52914,-54.35681 78.5202,-57.45332 18.90863,-1.54117 36.88803,0.61991 53.31394,6.40819 38.78905,13.66877 67.09512,45.04227 82.28395,91.20077 8.39907,25.5246 11.44378,48.17435 10.57807,78.69087 -1.51214,53.30287 -18.14501,100.59045 -47.95541,136.33811 -9.4429,11.32363 -16.14799,13.77514 -24.47528,8.9486 z"
     id="path5"
     transform="scale(0.5)" />
  <path
     style="fill:#ff7f2a;stroke-width:1.03493"
     d="m 254.83515,539.15599 c -10.1984,-2.53144 -22.76895,-12.96783 -24.08788,-19.99837 -1.09627,-5.84358 0.28561,-10.66484 4.17017,-14.5494 6.3405,-6.3405 14.1178,-6.16416 21.81132,0.49453 4.6278,4.00534 4.81488,4.0665 7.51442,2.45705 1.52265,-0.90779 7.75785,-5.92763 13.85598,-11.15522 23.67278,-20.29326 32.37926,-22.5001 63.3524,-16.05794 8.57939,1.78444 18.56941,3.29803 22.20003,3.36352 l 6.60114,0.11908 5.60832,-6.20958 c 11.43773,-12.66393 21.05206,-29.99552 25.38472,-45.76064 3.29551,-11.99119 3.31539,-35.86419 0.0393,-47.16716 -4.29712,-14.82557 -12.37979,-27.97755 -23.21985,-37.78289 -11.66326,-10.54998 -29.11945,-18.34297 -45.73932,-20.41949 -6.5077,-0.81308 -5.86494,0.45275 -8.39274,-16.52829 -2.29651,-15.42728 -2.37977,-15.00647 2.96881,-15.00647 6.6482,0 21.00186,2.70175 30.84288,5.80547 28.08389,8.85727 52.14627,28.92942 64.99913,54.22041 16.93975,33.33286 16.34725,75.08377 -1.57238,110.80038 -5.17869,10.32195 -14.98946,24.38978 -23.20399,33.27262 -8.51036,9.20272 -16.36058,13.6925 -27.03299,15.46098 -7.24091,1.19985 -18.52103,-0.0831 -37.68751,-4.28632 -11.94729,-2.62005 -18.71234,-2.65054 -22.88989,-0.10317 -1.77443,1.08202 -7.13019,5.34018 -11.90168,9.46259 -12.91453,11.15772 -18.84419,15.40418 -24.52334,17.56207 -6.45776,2.45377 -14.07166,3.25364 -19.09703,2.00624 z"
     id="path6"
     transform="scale(0.5)" />
  <path
     style="fill:#ff7f2a;stroke-width:1.03493"
     d="m 298.91382,324.49249 c -4.70633,-2.04715 -6.39484,-5.29392 -7.18727,-13.82009 -0.64865,-6.97922 -0.52488,-7.68412 1.78303,-10.15469 3.95945,-4.23852 7.01673,-5.29119 17.67626,-6.08625 l 10.02154,-0.74746 0.5223,3.48141 c 0.28726,1.91478 1.02267,7.44002 1.63424,12.27832 0.61158,4.83829 1.39997,10.54333 1.75199,12.67787 l 0.64004,3.88099 -11.77836,-0.0405 c -7.65865,-0.0263 -12.9275,-0.54036 -15.06377,-1.46959 z"
     id="path7"
     transform="scale(0.5)" />
  <path
     style="fill:#ff7f2a;stroke-width:1.03493"
     d="m 318.52915,391.23257 c -2.20829,-1.34645 -4.56197,-4.47163 -6.97199,-9.2573 -4.71176,-9.35631 -12.20496,-31.94288 -14.96409,-45.10593 -1.19314,-5.69211 -2.4076,-11.39544 -2.6988,-12.67408 l -0.52947,-2.32479 3.38228,2.06219 c 2.90261,1.76973 5.22427,2.06274 16.37056,2.06606 l 12.98828,0.004 1.32797,6.4683 c 1.77162,8.62926 7.82216,27.23727 11.57919,35.61098 3.54397,7.89886 3.82326,13.01208 0.96664,17.69732 -4.3774,7.1795 -14.42865,9.73483 -21.45057,5.45338 z"
     id="path8"
     transform="scale(0.5)" />
  <path
     style="fill:#ff7f2a;stroke-width:0.5"
     d="m 322.24676,392.53283 c -2.48287,-0.75525 -4.42824,-2.04382 -6.18615,-4.09754 -5.92781,-6.92531 -15.03329,-32.20157 -20.05999,-55.68529 -1.00068,-4.675 -1.93566,-8.90652 -2.07772,-9.40337 -0.21149,-0.73968 0.27041,-0.60377 2.6594,0.75 l 2.9177,1.65337 10.5,0.0598 10.5,0.0598 -9.50886,-0.31598 c -9.25769,-0.30764 -9.58787,-0.35544 -12.5,-1.80977 -2.31573,-1.15649 -3.25502,-1.97614 -4.15975,-3.62994 -1.41491,-2.58636 -2.54026,-8.54023 -2.56395,-13.56494 l -0.0174,-3.70108 2.625,-2.60349 c 4.07974,-4.0463 7.14681,-4.87136 22.38599,-6.02192 l 4.26099,-0.3217 2.1331,15.67464 c 1.17321,8.62105 2.43773,16.68714 2.81005,17.92464 0.37232,1.2375 1.37091,5.175 2.21909,8.75 1.91403,8.06745 6.17983,21.13076 9.82791,30.09631 4.37235,10.74554 4.61861,14.4923 1.29675,19.73032 -3.28039,5.17263 -11.30256,8.20817 -17.06212,6.4562 z"
     id="path9"
     transform="scale(0.5)" />
  <path
     style="fill:#ff7f2a;stroke-width:0.5"
     d="m 322.24676,392.53283 c -2.48287,-0.75525 -4.42824,-2.04382 -6.18615,-4.09754 -5.92781,-6.92531 -15.03329,-32.20157 -20.05999,-55.68529 -1.00068,-4.675 -1.93566,-8.90652 -2.07772,-9.40337 -0.21149,-0.73968 0.27041,-0.60377 2.6594,0.75 l 2.9177,1.65337 8.25,0.0711 8.25,0.0712 -7.32437,-0.35919 c -6.71407,-0.32926 -7.56815,-0.48101 -10.25,-1.82115 -2.2489,-1.1238 -3.19594,-1.95609 -4.09424,-3.59812 -1.41491,-2.58636 -2.54026,-8.54023 -2.56395,-13.56494 l -0.0174,-3.70108 2.625,-2.60349 c 4.08041,-4.04696 7.14459,-4.87099 22.39572,-6.02273 l 4.27073,-0.32251 2.12648,15.67545 c 1.16957,8.6215 2.431,16.68795 2.80317,17.92545 0.37218,1.2375 1.28369,4.8375 2.0256,8 1.7272,7.36254 6.58533,22.26884 10.06131,30.87128 4.32068,10.69294 4.5614,14.48518 1.25087,19.70535 -3.28039,5.17263 -11.30256,8.20817 -17.06212,6.4562 z"
     id="path10"
     transform="scale(0.5)" />
  <path
     style="fill:#ff7f2a;stroke-width:0.5"
     d="m 321.62954,392.28854 c -2.67255,-0.95385 -4.03562,-1.94801 -6.02046,-4.39107 -5.77945,-7.11366 -14.53113,-31.65419 -19.57764,-54.89747 -0.98516,-4.5375 -1.90707,-8.76131 -2.04867,-9.38624 -0.24972,-1.10204 -0.17077,-1.08732 2.62249,0.4891 2.82294,1.59317 3.01372,1.62716 9.63735,1.71734 l 6.75739,0.092 -5.89229,-0.40213 c -10.13053,-0.69137 -13.14353,-3.03776 -14.63388,-11.39622 -0.37892,-2.12512 -0.69679,-5.52934 -0.70639,-7.56494 l -0.0174,-3.70108 2.625,-2.60349 c 4.0875,-4.05399 7.12104,-4.86717 22.5,-6.03141 3.66062,-0.27713 4.375,-0.21155 4.375,0.40161 0,1.27823 3.46328,26.54035 3.96023,28.88705 3.36608,15.89517 7.78201,30.51297 13.24019,43.82829 3.89749,9.50799 4.0874,13.65523 0.85846,18.74675 -3.45827,5.45312 -11.69573,8.34747 -17.67934,6.21191 z"
     id="path11"
     transform="scale(0.5)" />
  <path
     style="fill:#ff7f2a;stroke-width:0.5"
     d="m 321.62954,392.28854 c -2.67255,-0.95385 -4.03562,-1.94801 -6.02046,-4.39107 -5.83059,-7.17661 -14.12988,-30.46959 -19.63417,-55.10571 -1.2237,-5.47703 -2.22491,-10.04979 -2.22491,-10.16169 0,-0.11191 1.28481,0.53163 2.85514,1.43008 2.72067,1.55662 3.12686,1.63906 8.625,1.75059 l 5.76986,0.11704 -4.95876,-0.44221 c -6.42104,-0.5726 -9.97676,-2.20373 -11.70985,-5.37172 -1.42518,-2.60513 -2.54047,-8.54987 -2.56395,-13.66632 l -0.0174,-3.80247 2.63763,-2.49456 c 3.70107,-3.50032 6.66453,-4.48758 16.21741,-5.40274 C 314.8981,294.33649 319.01837,294 319.76119,294 h 1.35057 l 0.8867,6.875 c 3.40756,26.42031 6.8987,41.32591 14.08229,60.125 5.21194,13.6394 5.33608,14.04904 5.37882,17.75 0.035,3.03095 -0.16721,3.86854 -1.50896,6.25 -3.55154,6.30359 -11.84095,9.60131 -18.32107,7.28854 z"
     id="path12"
     transform="scale(0.5)" />
  <path
     style="fill:#ff7f2a;stroke-width:0.5"
     d="m 320.5,391.82357 c -1.375,-0.64166 -3.3394,-2.09779 -4.36533,-3.23585 -5.81931,-6.45531 -14.46695,-30.36849 -20.16091,-55.75063 -1.22307,-5.4521 -2.22376,-10.00662 -2.22376,-10.12117 0,-0.11454 1.33689,0.49252 2.97086,1.34902 2.59379,1.35963 3.56156,1.57781 7.625,1.71903 l 4.65414,0.16174 -4,-0.48367 c -5.45403,-0.65949 -9.10479,-2.48962 -10.66861,-5.34819 -1.42518,-2.60513 -2.54047,-8.54987 -2.56395,-13.66632 l -0.0174,-3.80247 2.63763,-2.49456 c 4.14676,-3.92184 7.9538,-4.95113 21.90904,-5.92347 l 4.79667,-0.3342 0.62085,4.67858 c 3.94054,29.69474 7.17408,43.67345 14.55657,62.92859 4.94985,12.91028 5.14623,13.56313 5.18881,17.25 0.035,3.03095 -0.16721,3.86854 -1.50896,6.25 -3.82004,6.78014 -12.79598,9.92904 -19.45061,6.82357 z"
     id="path13"
     transform="scale(0.5)" />
  <path
     style="fill:#ff7f2a;stroke-width:0.5"
     d="m 320.48095,391.8172 c -1.38548,-0.64516 -3.41048,-2.18627 -4.5,-3.42469 -5.85764,-6.65814 -14.64461,-31.11935 -20.21143,-56.26469 -1.11074,-5.01721 -2.01952,-9.24075 -2.01952,-9.38566 0,-0.14492 1.29375,0.39981 2.875,1.2105 2.23081,1.14372 3.77126,1.53225 6.875,1.73402 l 4,0.26003 -3.25,-0.48657 c -4.77362,-0.71467 -8.4768,-2.71074 -9.91861,-5.34629 -1.42518,-2.60513 -2.54047,-8.54987 -2.56395,-13.66632 l -0.0174,-3.80247 2.63763,-2.49456 c 4.14768,-3.92271 8.02236,-4.97066 21.98737,-5.94676 3.52951,-0.2467 4.875,-0.18257 4.875,0.23238 0,0.31522 0.79708,6.36479 1.77128,13.4435 3.11168,22.60987 6.97299,37.63065 14.90064,57.96467 4.33192,11.11115 4.65368,14.33223 1.93173,19.3385 -3.57332,6.57214 -12.75439,9.71631 -19.3727,6.63441 z"
     id="path14"
     transform="scale(0.5)" />
  <path
     style="fill:#ff7f2a;stroke-width:0.5"
     d="m 320.5,391.80634 c -4.35789,-2.06369 -6.9751,-5.66741 -11.07472,-15.24912 -2.80138,-6.54744 -7.04206,-18.94314 -9.67475,-28.27979 -1.59829,-5.66819 -6.00053,-24.38593 -6.00053,-25.51344 0,-0.15311 1.34358,0.39985 2.98574,1.22881 1.83793,0.92778 3.71204,1.49423 4.875,1.47345 l 1.88926,-0.0337 -2.28028,-0.61491 c -3.44597,-0.92925 -5.59663,-2.39643 -6.86171,-4.68105 -1.45838,-2.63369 -2.60801,-8.63221 -2.60801,-13.60801 v -3.88348 l 2.63763,-2.49456 c 3.58637,-3.39185 6.64929,-4.45087 15.58757,-5.38952 8.59301,-0.9024 11.2748,-0.954 11.2748,-0.21693 0,1.80268 3.76051,26.71452 4.7861,31.70595 2.63107,12.80514 6.4844,25.62655 11.91589,39.64846 4.36951,11.2803 4.66236,14.20692 1.92529,19.24091 -3.59882,6.61892 -12.79631,9.78342 -19.37728,6.66697 z m -14.88542,-66.10842 c -0.16614,-0.16615 -0.59739,-0.18391 -0.95833,-0.0395 -0.39887,0.15962 -0.28039,0.27809 0.30208,0.30209 0.52709,0.0217 0.8224,-0.0965 0.65625,-0.26261 z"
     id="path15"
     transform="scale(0.5)" />
  <path
     style="fill:#ff7f2a;stroke-width:0.5"
     d="m 320.75,391.96073 c -4.38584,-1.983 -7.45071,-6.15461 -11.45588,-15.59265 -2.62201,-6.17868 -7.51757,-20.60718 -9.77638,-28.81355 -1.41497,-5.14063 -5.76774,-23.82801 -5.76774,-24.76211 0,-0.13748 1.40625,0.41531 3.125,1.22842 1.71875,0.8131 3.8,1.4712 4.625,1.46244 1.28251,-0.0136 1.12825,-0.14442 -1.06397,-0.90211 -1.41018,-0.4874 -3.17511,-1.28661 -3.92205,-1.77603 -2.78735,-1.82635 -4.75248,-8.57915 -4.7602,-16.35761 l -0.004,-3.80247 2.63763,-2.49456 c 3.58637,-3.39185 6.64929,-4.45087 15.58757,-5.38952 8.47353,-0.88985 11.2748,-0.95314 11.2748,-0.25474 0,1.46333 3.65535,25.99076 4.54452,30.49376 2.52523,12.78851 6.13622,24.88846 12.08641,40.5 3.17783,8.33766 3.53017,9.61986 3.57231,13 0.039,3.12815 -0.16982,4.16457 -1.2593,6.25 -3.48987,6.68014 -12.89955,10.16969 -19.44394,7.21073 z"
     id="path16"
     transform="scale(0.5)" />
  <path
     style="fill:#ff7f2a;stroke-width:0.5"
     d="m 291.00069,316.39574 c -1.06384,-2.61036 -1.52997,-8.18508 -0.82743,-9.89574 0.4408,-1.07333 0.51921,-1.10866 0.55481,-0.25 0.0228,0.55 0.36905,3.46176 0.76945,6.47057 0.4004,3.00882 0.64917,5.5494 0.55283,5.64575 -0.0963,0.0963 -0.56869,-0.79042 -1.04966,-1.97058 z"
     id="path17"
     transform="scale(0.5)" />
  <path
     style="fill:#ff7f2a;stroke-width:0.5"
     d="m 320.48095,391.8172 c -1.41921,-0.66087 -3.43252,-2.21078 -4.61124,-3.54987 -4.40456,-5.00385 -11.08506,-21.64805 -16.37389,-40.79489 -1.56125,-5.6521 -5.74582,-23.5113 -5.74582,-24.5224 0,-0.22417 1.40625,0.25769 3.125,1.0708 1.71875,0.8131 3.6875,1.47321 4.375,1.4669 0.88414,-0.008 0.3958,-0.36269 -1.66848,-1.21146 -1.60516,-0.66 -3.32811,-1.5707 -3.82876,-2.02379 -2.28839,-2.07095 -3.99203,-8.80418 -3.99898,-15.80496 l -0.004,-3.80247 2.63763,-2.49456 c 4.12292,-3.89929 8.57922,-5.12522 21.69587,-5.96854 l 5.0835,-0.32684 0.30051,2.19744 c 4.90013,35.8322 7.56215,46.77002 17.8146,73.19744 3.63754,9.37639 2.90132,15.14808 -2.52785,19.81734 -4.58491,3.94317 -11.28088,5.07465 -16.27331,2.74986 z"
     id="path18"
     transform="scale(0.5)" />
</svg>
