<?xml version="1.0" encoding="utf-8"?>
<!-- Generator: Adobe Illustrator 15.0.0, SVG Export Plug-In . SVG Version: 6.00 Build 0)  -->
<!DOCTYPE svg PUBLIC "-//W3C//DTD SVG 1.1//EN" "http://www.w3.org/Graphics/SVG/1.1/DTD/svg11.dtd">
<svg version="1.1"  xmlns="http://www.w3.org/2000/svg" xmlns:xlink="http://www.w3.org/1999/xlink" x="0px" y="0px"
	 width="48px" height="48px" viewBox="0 0 48 48" enable-background="new 0 0 48 48" xml:space="preserve">
<path fill="#546E7A" d="M20.787,25.799c0.391-0.391,1.023-0.391,1.414,0l0,0c0.391,0.391,0.392,1.022,0,1.414l-1.414,1.415
	c-0.391,0.391-1.024,0.39-1.414,0l0,0c-0.391-0.39-0.391-1.023,0-1.415L20.787,25.799z"/>
<g>
	
		<rect x="29.223" y="23.335" transform="matrix(-0.7071 -0.7072 0.7072 -0.7071 37.6757 74.2772)" fill="#673AB7" width="10" height="11.999"/>
	
		<rect x="13.666" y="7.778" transform="matrix(-0.7071 -0.7072 0.7072 -0.7071 22.1201 36.72)" fill="#673AB7" width="10" height="12"/>
</g>
<g>
	
		<rect x="32.87" y="31.017" transform="matrix(-0.7071 -0.7071 0.7071 -0.7071 34.8252 79.4592)" fill="#B39DDB" width="1.998" height="3"/>
	
		<rect x="30.04" y="28.188" transform="matrix(-0.7069 -0.7074 0.7074 -0.7069 31.9812 72.6295)" fill="#B39DDB" width="1.999" height="3"/>
	
		<rect x="36.405" y="27.481" transform="matrix(-0.7069 -0.7074 0.7074 -0.7069 43.3443 75.9245)" fill="#B39DDB" width="1.999" height="3"/>
	
		<rect x="33.577" y="24.653" transform="matrix(-0.7069 -0.7074 0.7074 -0.7069 40.5179 69.0959)" fill="#B39DDB" width="1.999" height="2.999"/>
	
		<rect x="17.313" y="15.461" transform="matrix(-0.7072 -0.707 0.707 -0.7072 19.2717 41.9025)" fill="#B39DDB" width="1.999" height="3"/>
	
		<rect x="14.484" y="12.632" transform="matrix(-0.7072 -0.707 0.707 -0.7072 16.4428 35.0738)" fill="#B39DDB" width="1.999" height="3.001"/>
	
		<rect x="20.848" y="11.925" transform="matrix(-0.7072 -0.707 0.707 -0.7072 27.8075 38.366)" fill="#B39DDB" width="1.999" height="3.001"/>
	
		<rect x="18.02" y="9.096" transform="matrix(-0.7069 -0.7074 0.7074 -0.7069 24.9681 31.5396)" fill="#B39DDB" width="1.999" height="3"/>
</g>
<g>
	
		<rect x="20.444" y="20.557" transform="matrix(-0.7071 -0.7071 0.7071 -0.7071 29.8996 55.4981)" fill="#78909C" width="11.999" height="1.999"/>
	<path fill="#78909C" d="M24.877,31.303c0.385-2.172-0.212-4.533-1.891-6.213c-1.678-1.68-4.041-2.275-6.213-1.891L24.877,31.303z"
		/>
</g>
<g>
	<path fill="none" stroke="#90CAF9" stroke-width="2" d="M20,35.223c-2.889,0-7.222-2.889-7.222-7.223"/>
	<path fill="none" stroke="#90CAF9" stroke-width="2" d="M20,41c-7.186,0-13-5.814-13-13"/>
</g>
<path fill="#B0BEC5" d="M28.565,13.778c0.39-0.39,1.022-0.39,1.411,0l4.235,4.235c0.39,0.389,0.391,1.021,0.001,1.412l-7.771,7.789
	c-0.39,0.391-1.022,0.391-1.411,0l-4.235-4.234c-0.39-0.391-0.392-1.021,0-1.412L28.565,13.778z"/>
</svg>
